<svg width="80" height="99" viewBox="0 0 80 99" fill="none" xmlns="http://www.w3.org/2000/svg">
<path fill-rule="evenodd" clip-rule="evenodd" d="M60.4296 2.53558H38.7743V33.653L38.7743 34.6945C38.7743 36.1313 38.4587 37.5482 37.8523 38.848L34.2836 37.1645C27.3934 33.9144 19.2943 34.4295 12.8809 38.5258L2.67419 45.0449L9.18361 55.0336L19.3903 48.5145C22.3055 46.6525 25.9869 46.4184 29.1188 47.8958L32.1247 49.3137L20.9369 69.6695C19.8943 71.5664 18.2542 73.0741 16.2661 73.9629L3.4579 79.6894L8.3999 90.523L21.2081 84.7965C25.5818 82.841 29.1902 79.5241 31.4839 75.3509L33.1519 72.3159L41.7406 79.5469C42.8022 80.4407 43.6634 81.5441 44.2693 82.7864L50.7976 96.1741L61.6106 91.0062L55.0823 77.6185C53.7495 74.8853 51.8547 72.4578 49.5193 70.4916L39.0152 61.648L42.8322 54.7032L46.6092 56.7341C52.4604 59.8803 59.4357 60.2354 65.5822 57.7L79.0803 52.132L74.4622 41.1593L60.964 46.7273C58.1702 47.8798 54.9996 47.7183 52.3399 46.2882L48.5519 44.2514C50.0171 41.2787 50.7815 38.0107 50.7815 34.6945V33.653H60.4296C63.4684 33.653 67.2434 32.7099 70.3815 30.1854C73.7363 27.4866 75.9191 23.3233 75.9191 17.9416C75.9191 12.5409 73.7149 8.39571 70.264 5.75842C67.0691 3.31672 63.3045 2.53558 60.4296 2.53558ZM50.7815 21.7658H60.4296C61.1852 21.7658 62.1531 21.488 62.8094 20.96C63.0979 20.728 63.3405 20.4402 63.5255 20.0473C63.7112 19.6529 63.9119 18.9962 63.9119 17.9416C63.9119 16.8858 63.7109 16.2692 63.5482 15.9314C63.388 15.5989 63.1821 15.3631 62.9269 15.168C62.3274 14.7099 61.3491 14.4227 60.4296 14.4227H50.7815V21.7658Z" fill="black"/>
</svg>
